<svg width="72" height="72" viewBox="0 0 72 72" fill="none" xmlns="http://www.w3.org/2000/svg">
<path fill-rule="evenodd" clip-rule="evenodd" d="M32.5471 72C16.7772 71.9997 4.00002 59.263 4 43.56C4 33.1596 9.60455 24.062 17.9693 19.1027C19.288 18.3026 20.6292 17.6527 21.9815 17.1311C25.2498 15.8331 28.8154 15.12 32.5471 15.12C33.3741 15.12 34.193 15.1565 35.0013 15.2251C36.977 15.2886 38.5754 15.7028 40.2014 16.1228C41.8297 16.5434 43.496 16.9729 45.6602 17.1048C49.6671 17.3488 52.6125 15.25 53.8273 12.3155C55.0436 9.37709 54.5412 5.55304 51.5182 2.33578C51.051 1.83849 51.0443 1.13916 51.2759 0.657153C51.3938 0.411861 51.5931 0.180807 51.8757 0.0679705C52.1751 -0.0513865 52.5052 -0.0123141 52.8088 0.175446C63.0941 6.538 68.6749 20.3148 67.9347 34.1903C67.1933 48.084 60.1118 62.1781 44.9459 69.1809C41.1958 70.9853 36.9901 72 32.5471 72ZM35.5314 47.5984C37.8935 47.5158 39.688 44.0878 39.5389 39.9421C39.3897 35.7967 37.3539 32.5035 34.9919 32.5859C32.6299 32.6686 30.8354 36.0959 30.9844 40.2414C31.1336 44.3868 33.1695 47.6806 35.5314 47.5984ZM16.9908 47.3858C19.2858 47.5712 21.4176 44.4564 21.7526 40.4285C22.0875 36.4005 20.4988 32.985 18.2038 32.7993C15.9088 32.6138 13.7762 35.7286 13.4412 39.7566C13.1063 43.7845 14.6958 47.2001 16.9908 47.3858Z" fill="url(#paint0_radial_11509_21540)"/>
<defs>
<radialGradient id="paint0_radial_11509_21540" cx="0" cy="0" r="1" gradientTransform="matrix(32.9192 37.2128 -31.3134 26.9367 30.8966 23.0106)" gradientUnits="userSpaceOnUse">
<stop stop-color="#FFBA60"/>
<stop offset="0.961823" stop-color="#E97941"/>
</radialGradient>
</defs>
</svg>
